<svg width="179" height="35" viewBox="0 0 179 35" fill="none" xmlns="http://www.w3.org/2000/svg">
<mask id="mask0_26_51" style="mask-type:alpha" maskUnits="userSpaceOnUse" x="0" y="0" width="35" height="35">
<circle cx="17.5" cy="17.5" r="17.5" fill="#D9D9D9"/>
</mask>
<g mask="url(#mask0_26_51)">
<path d="M33.5865 1.66666C35.511 -1.66668 40.3223 -1.66667 42.2468 1.66666L63.8974 39.1667C65.8219 42.5 63.4163 46.6667 59.5673 46.6667H16.266C12.417 46.6667 10.0114 42.5 11.9359 39.1667L33.5865 1.66666Z" fill="#5C85F7"/>
<path d="M-7.24687 1.66666C-5.32237 -1.66668 -0.511124 -1.66667 1.41338 1.66666L23.064 39.1667C24.9885 42.5 22.5829 46.6667 18.7339 46.6667H-24.5674C-28.4164 46.6667 -30.822 42.5 -28.8975 39.1667L-7.24687 1.66666Z" fill="#A2B5F7"/>
<path d="M13.1699 -33.9167C15.0944 -37.25 19.9056 -37.25 21.8301 -33.9167L43.4808 3.58333C45.4053 6.91666 42.9996 11.0833 39.1506 11.0833H-4.15064C-7.99964 11.0833 -10.4053 6.91666 -8.48076 3.58332L13.1699 -33.9167Z" fill="#1556F7"/>
</g>
<path d="M51.7559 20.6982C51.7559 18.6768 52.2686 17.0713 53.2939 15.8818C54.3193 14.6924 55.7988 14.0977 57.7324 14.0977C58.8457 14.0977 59.7891 14.2705 60.5625 14.6162C61.3359 14.9619 61.8809 15.4629 62.1973 16.1191C62.4082 16.5527 62.373 16.8457 62.0918 16.998L61.0371 17.5605C60.668 17.7598 60.3633 17.6484 60.123 17.2266C59.9707 16.957 59.6865 16.7139 59.2705 16.4971C58.8604 16.2803 58.377 16.1719 57.8203 16.1719C56.5898 16.1719 55.7285 16.5615 55.2363 17.3408C54.7441 18.1143 54.498 19.2334 54.498 20.6982C54.498 22.1631 54.7441 23.2852 55.2363 24.0645C55.7285 24.8379 56.5898 25.2246 57.8203 25.2246C58.4824 25.2246 59.0391 25.0752 59.4902 24.7764C59.9473 24.4775 60.2637 24.1934 60.4395 23.9238C60.7266 23.4844 61.0312 23.373 61.3535 23.5898L62.4082 24.293C62.6953 24.4863 62.7246 24.7793 62.4961 25.1719C62.1562 25.7578 61.5732 26.2588 60.7471 26.6748C59.9209 27.0908 58.916 27.2988 57.7324 27.2988C55.8281 27.2988 54.3545 26.7041 53.3115 25.5146C52.2744 24.3252 51.7559 22.7197 51.7559 20.6982ZM102.311 27C101.9 27 101.695 26.7803 101.695 26.3408V15.0557C101.695 14.6162 101.9 14.3965 102.311 14.3965H103.611C104.115 14.3965 104.496 14.6016 104.754 15.0117L109.236 22.21H109.298C109.269 21.8584 109.254 21.5068 109.254 21.1553V15.0557C109.254 14.6162 109.459 14.3965 109.869 14.3965H111.205C111.615 14.3965 111.82 14.6162 111.82 15.0557V26.3408C111.82 26.7803 111.615 27 111.205 27H109.992C109.488 27 109.107 26.7949 108.85 26.3848L104.279 19.0547H104.218C104.247 19.4062 104.262 19.7578 104.262 20.1094V26.3408C104.262 26.7803 104.057 27 103.646 27H102.311ZM120.935 26.0596C120.571 25.7842 120.483 25.5059 120.671 25.2246L121.348 24.2051C121.57 23.8711 121.896 23.8535 122.323 24.1523C122.651 24.3809 123.079 24.6182 123.606 24.8643C124.14 25.1045 124.699 25.2246 125.285 25.2246C125.695 25.2246 126.091 25.1777 126.472 25.084C126.853 24.9902 127.143 24.8086 127.342 24.5391C127.541 24.2695 127.641 23.9502 127.641 23.5811C127.641 23.3174 127.597 23.0859 127.509 22.8867C127.421 22.6875 127.277 22.5234 127.078 22.3945C126.879 22.2656 126.674 22.1572 126.463 22.0693C126.094 21.917 125.628 21.7676 125.065 21.6211C124.509 21.4688 123.958 21.2871 123.413 21.0762C122.927 20.8887 122.481 20.6309 122.077 20.3027C121.673 19.9746 121.359 19.6055 121.137 19.1953C120.914 18.7852 120.803 18.2373 120.803 17.5518C120.803 16.7373 121.066 16.04 121.594 15.46C122.121 14.8799 122.728 14.5078 123.413 14.3438C124.099 14.1797 124.79 14.0977 125.487 14.0977C126.179 14.0977 126.891 14.2031 127.623 14.4141C128.361 14.625 128.918 14.8887 129.293 15.2051C129.662 15.5156 129.753 15.7969 129.565 16.0488L128.854 17.0068C128.613 17.335 128.291 17.3613 127.887 17.0859C127.629 16.9102 127.274 16.7139 126.823 16.4971C126.378 16.2803 125.912 16.1719 125.426 16.1719C125.08 16.1719 124.761 16.2012 124.468 16.2598C124.181 16.3184 123.926 16.459 123.703 16.6816C123.48 16.9043 123.369 17.1797 123.369 17.5078C123.369 17.8242 123.451 18.082 123.615 18.2812C123.779 18.4746 123.961 18.6211 124.16 18.7207C124.359 18.8145 124.562 18.8936 124.767 18.958C125.399 19.1631 125.965 19.3447 126.463 19.5029C126.961 19.6553 127.421 19.8252 127.843 20.0127C128.429 20.2764 128.877 20.54 129.188 20.8037C129.498 21.0674 129.753 21.4277 129.952 21.8848C130.157 22.3418 130.26 22.8867 130.26 23.5195C130.26 24.457 129.961 25.2334 129.363 25.8486C128.766 26.458 128.101 26.8506 127.368 27.0264C126.642 27.208 125.933 27.2988 125.241 27.2988C124.222 27.2988 123.393 27.1992 122.754 27C122.115 26.8066 121.509 26.4932 120.935 26.0596Z" fill="#1556F7"/>
<path d="M65.1855 27C64.834 27 64.6582 26.8242 64.6582 26.4727V16.0928C64.6582 15.8291 64.7197 15.5889 64.8428 15.3721L65.5195 14.1855C65.6484 13.9629 65.8008 13.8516 65.9766 13.8516H66.5918C66.9434 13.8516 67.1191 14.0273 67.1191 14.3789V26.4727C67.1191 26.8242 66.9434 27 66.5918 27H65.1855ZM69.4922 23.168V18.2988C69.4922 17.9473 69.668 17.7715 70.0195 17.7715H71.4258C71.7773 17.7715 71.9531 17.9473 71.9531 18.2988V22.5352C71.9531 23.8125 72.041 24.6182 72.2168 24.9521C72.3926 25.2861 72.7617 25.4531 73.3242 25.4531C73.9219 25.4531 74.376 25.2158 74.6865 24.7412C74.9971 24.2607 75.1523 23.2676 75.1523 21.7617V18.2988C75.1523 17.9473 75.3281 17.7715 75.6797 17.7715H77.0859C77.4375 17.7715 77.6133 17.9473 77.6133 18.2988V26.4727C77.6133 26.8242 77.4375 27 77.0859 27H75.6973C75.3457 27 75.1699 26.8242 75.1699 26.4727V25.9629H75.1348C74.8652 26.4258 74.5225 26.7451 74.1064 26.9209C73.6904 27.0908 73.1982 27.1758 72.6299 27.1758C71.7334 27.1758 70.9863 26.8887 70.3887 26.3145C69.791 25.7402 69.4922 24.6914 69.4922 23.168ZM80.5312 27C80.1797 27 80.0039 26.8242 80.0039 26.4727V14.5547C80.0039 14.2031 80.1797 14.0273 80.5312 14.0273H81.9375C82.2891 14.0273 82.4648 14.2031 82.4648 14.5547V18.1055C82.4648 18.3398 82.4531 18.5742 82.4297 18.8086H82.4648C82.7695 18.3047 83.1094 17.9766 83.4844 17.8242C83.8594 17.6719 84.3105 17.5957 84.8379 17.5957C86.2148 17.5957 87.1816 18.0732 87.7383 19.0283C88.3008 19.9775 88.582 21.0967 88.582 22.3857C88.582 23.6748 88.3008 24.7969 87.7383 25.752C87.1816 26.7012 86.2148 27.1758 84.8379 27.1758C84.3105 27.1758 83.8594 27.0996 83.4844 26.9473C83.1094 26.7949 82.7695 26.4668 82.4648 25.9629H82.4297L82.3945 26.4727C82.3711 26.8242 82.2129 27 81.9199 27H80.5312ZM82.4648 22.7812C82.4648 23.5723 82.6201 24.2168 82.9307 24.7148C83.2471 25.207 83.625 25.4531 84.0645 25.4531C84.8555 25.4531 85.3711 25.1777 85.6113 24.627C85.8574 24.0703 85.9805 23.3232 85.9805 22.3857C85.9805 21.4482 85.8574 20.7041 85.6113 20.1533C85.3711 19.5967 84.8555 19.3184 84.0645 19.3184C83.625 19.3184 83.2471 19.5674 82.9307 20.0654C82.6201 20.5576 82.4648 21.1992 82.4648 21.9902V22.7812ZM97.1602 27C96.8086 27 96.6328 26.8242 96.6328 26.4727V18.2988C96.6328 17.9473 96.8086 17.7715 97.1602 17.7715H98.5664C98.918 17.7715 99.0938 17.9473 99.0938 18.2988V26.4727C99.0938 26.8242 98.918 27 98.5664 27H97.1602ZM97.1602 16.418C96.8086 16.418 96.6328 16.2422 96.6328 15.8906V14.7656C96.6328 14.4141 96.8086 14.2383 97.1602 14.2383H98.5664C98.918 14.2383 99.0938 14.4141 99.0938 14.7656V15.8906C99.0938 16.2422 98.918 16.418 98.5664 16.418H97.1602ZM131.578 22.3857C131.578 20.9033 131.947 19.7344 132.686 18.8789C133.43 18.0234 134.479 17.5957 135.832 17.5957C137.402 17.5957 138.568 18 139.33 18.8086C140.092 19.6172 140.473 20.918 140.473 22.7109C140.473 23.0625 140.309 23.2383 139.98 23.2383H134.18C134.273 24.2109 134.514 24.8232 134.9 25.0752C135.287 25.3271 135.735 25.4531 136.245 25.4531C136.731 25.4531 137.104 25.3887 137.361 25.2598C137.619 25.1309 137.836 24.9551 138.012 24.7324C138.211 24.4746 138.457 24.4336 138.75 24.6094L139.629 25.1455C139.975 25.3564 140.024 25.6084 139.778 25.9014C139.421 26.3291 139.002 26.6484 138.521 26.8594C138.041 27.0703 137.282 27.1758 136.245 27.1758C134.563 27.1758 133.365 26.748 132.65 25.8926C131.936 25.0371 131.578 23.8682 131.578 22.3857ZM134.188 21.4805H138.012C138.012 20.8477 137.854 20.332 137.537 19.9336C137.221 19.5293 136.717 19.3271 136.025 19.3271C135.475 19.3271 135.038 19.5205 134.716 19.9072C134.394 20.2881 134.218 20.8125 134.188 21.4805ZM141.896 24.5391C141.896 23.3672 142.456 22.5176 143.575 21.9902C144.694 21.4629 145.972 21.1816 147.407 21.1465V20.7949C147.407 20.2559 147.272 19.875 147.003 19.6523C146.733 19.4297 146.358 19.3184 145.878 19.3184C145.538 19.3184 145.236 19.3682 144.973 19.4678C144.715 19.5615 144.489 19.6729 144.296 19.8018C144.108 19.9248 143.938 20.0508 143.786 20.1797C143.517 20.4141 143.294 20.4258 143.118 20.2148L142.389 19.3184C142.207 19.0957 142.251 18.8672 142.521 18.6328C142.726 18.4512 142.963 18.293 143.232 18.1582C143.508 18.0234 143.871 17.8975 144.322 17.7803C144.773 17.6572 145.359 17.5957 146.08 17.5957C147.299 17.5957 148.233 17.877 148.884 18.4395C149.54 19.002 149.868 19.8311 149.868 20.9268V26.4727C149.868 26.8242 149.692 27 149.341 27H147.899C147.583 27 147.425 26.8242 147.425 26.4727V26.209H147.407C147.062 26.543 146.646 26.7891 146.159 26.9473C145.679 27.0996 145.236 27.1758 144.832 27.1758C143.871 27.1758 143.142 26.9414 142.644 26.4727C142.146 25.998 141.896 25.3535 141.896 24.5391ZM144.498 24.4863C144.498 24.6914 144.539 24.8701 144.621 25.0225C144.703 25.1689 144.832 25.2773 145.008 25.3477C145.184 25.418 145.38 25.4531 145.597 25.4531C145.896 25.4531 146.186 25.4121 146.467 25.3301C146.748 25.248 147.062 25.0547 147.407 24.75V22.8428C146.423 22.9541 145.764 23.0977 145.43 23.2734C145.096 23.4492 144.855 23.6309 144.709 23.8184C144.568 24.0059 144.498 24.2285 144.498 24.4863ZM152.795 27C152.443 27 152.268 26.8242 152.268 26.4727V18.2988C152.268 17.9473 152.443 17.7715 152.795 17.7715H154.184C154.535 17.7715 154.711 17.9473 154.711 18.2988V19.0195H154.746C154.898 18.6445 155.153 18.3135 155.511 18.0264C155.868 17.7393 156.29 17.5957 156.776 17.5957C157.11 17.5957 157.386 17.6367 157.603 17.7188C157.808 17.7949 157.887 17.9355 157.84 18.1406L157.594 19.1865C157.541 19.4209 157.383 19.4912 157.119 19.3975C156.967 19.3447 156.82 19.3184 156.68 19.3184C156.117 19.3184 155.651 19.6553 155.282 20.3291C154.913 21.0029 154.729 21.9844 154.729 23.2734V26.4727C154.729 26.8242 154.553 27 154.201 27H152.795ZM158.684 22.3857C158.684 20.8916 159.059 19.7197 159.809 18.8701C160.559 18.0205 161.71 17.5957 163.263 17.5957C164.171 17.5957 164.877 17.7158 165.381 17.9561C165.885 18.1963 166.289 18.5479 166.594 19.0107C166.775 19.2861 166.746 19.5029 166.506 19.6611L165.574 20.2764C165.311 20.4521 165.079 20.3848 164.88 20.0742C164.78 19.9219 164.59 19.7578 164.309 19.582C164.027 19.4062 163.679 19.3184 163.263 19.3184C162.601 19.3184 162.105 19.5527 161.777 20.0215C161.449 20.4844 161.285 21.2725 161.285 22.3857C161.285 23.499 161.449 24.29 161.777 24.7588C162.105 25.2217 162.601 25.4531 163.263 25.4531C163.737 25.4531 164.121 25.3535 164.414 25.1543C164.707 24.9551 164.982 24.6973 165.24 24.3809C165.463 24.1113 165.697 24.0732 165.943 24.2666L166.761 24.9082C167.007 25.1016 167.021 25.3594 166.805 25.6816C166.576 26.0215 166.187 26.3555 165.636 26.6836C165.091 27.0117 164.3 27.1758 163.263 27.1758C161.71 27.1758 160.559 26.751 159.809 25.9014C159.059 25.0518 158.684 23.8799 158.684 22.3857ZM169.248 27C168.896 27 168.721 26.8242 168.721 26.4727V14.5547C168.721 14.2031 168.896 14.0273 169.248 14.0273H170.654C171.006 14.0273 171.182 14.2031 171.182 14.5547V18.1055C171.182 18.3398 171.17 18.5742 171.146 18.8086H171.199C171.469 18.3457 171.812 18.0293 172.228 17.8594C172.644 17.6836 173.145 17.5957 173.73 17.5957C174.645 17.5957 175.4 17.8828 175.998 18.457C176.596 19.0312 176.895 20.0801 176.895 21.6035V26.4727C176.895 26.8242 176.719 27 176.367 27H174.961C174.609 27 174.434 26.8242 174.434 26.4727V22.2363C174.434 20.959 174.346 20.1533 174.17 19.8193C173.994 19.4854 173.616 19.3184 173.036 19.3184C172.421 19.3184 171.958 19.5586 171.647 20.0391C171.337 20.5137 171.182 21.5039 171.182 23.0098V26.4727C171.182 26.8242 171.006 27 170.654 27H169.248Z" fill="black"/>
<mask id="mask1_26_51" style="mask-type:alpha" maskUnits="userSpaceOnUse" x="51" y="13" width="126" height="15">
<path d="M51.7559 20.6982C51.7559 18.6768 52.2686 17.0713 53.2939 15.8818C54.3193 14.6924 55.7988 14.0977 57.7324 14.0977C58.8457 14.0977 59.7891 14.2705 60.5625 14.6162C61.3359 14.9619 61.8809 15.4629 62.1973 16.1191C62.4082 16.5527 62.373 16.8457 62.0918 16.998L61.0371 17.5605C60.668 17.7598 60.3633 17.6484 60.123 17.2266C59.9707 16.957 59.6865 16.7139 59.2705 16.4971C58.8604 16.2803 58.377 16.1719 57.8203 16.1719C56.5898 16.1719 55.7285 16.5615 55.2363 17.3408C54.7441 18.1143 54.498 19.2334 54.498 20.6982C54.498 22.1631 54.7441 23.2852 55.2363 24.0645C55.7285 24.8379 56.5898 25.2246 57.8203 25.2246C58.4824 25.2246 59.0391 25.0752 59.4902 24.7764C59.9473 24.4775 60.2637 24.1934 60.4395 23.9238C60.7266 23.4844 61.0312 23.373 61.3535 23.5898L62.4082 24.293C62.6953 24.4863 62.7246 24.7793 62.4961 25.1719C62.1562 25.7578 61.5732 26.2588 60.7471 26.6748C59.9209 27.0908 58.916 27.2988 57.7324 27.2988C55.8281 27.2988 54.3545 26.7041 53.3115 25.5146C52.2744 24.3252 51.7559 22.7197 51.7559 20.6982ZM102.311 27C101.9 27 101.695 26.7803 101.695 26.3408V15.0557C101.695 14.6162 101.9 14.3965 102.311 14.3965H103.611C104.115 14.3965 104.496 14.6016 104.754 15.0117L109.236 22.21H109.298C109.269 21.8584 109.254 21.5068 109.254 21.1553V15.0557C109.254 14.6162 109.459 14.3965 109.869 14.3965H111.205C111.615 14.3965 111.82 14.6162 111.82 15.0557V26.3408C111.82 26.7803 111.615 27 111.205 27H109.992C109.488 27 109.107 26.7949 108.85 26.3848L104.279 19.0547H104.218C104.247 19.4062 104.262 19.7578 104.262 20.1094V26.3408C104.262 26.7803 104.057 27 103.646 27H102.311ZM120.935 26.0596C120.571 25.7842 120.483 25.5059 120.671 25.2246L121.348 24.2051C121.57 23.8711 121.896 23.8535 122.323 24.1523C122.651 24.3809 123.079 24.6182 123.606 24.8643C124.14 25.1045 124.699 25.2246 125.285 25.2246C125.695 25.2246 126.091 25.1777 126.472 25.084C126.853 24.9902 127.143 24.8086 127.342 24.5391C127.541 24.2695 127.641 23.9502 127.641 23.5811C127.641 23.3174 127.597 23.0859 127.509 22.8867C127.421 22.6875 127.277 22.5234 127.078 22.3945C126.879 22.2656 126.674 22.1572 126.463 22.0693C126.094 21.917 125.628 21.7676 125.065 21.6211C124.509 21.4688 123.958 21.2871 123.413 21.0762C122.927 20.8887 122.481 20.6309 122.077 20.3027C121.673 19.9746 121.359 19.6055 121.137 19.1953C120.914 18.7852 120.803 18.2373 120.803 17.5518C120.803 16.7373 121.066 16.04 121.594 15.46C122.121 14.8799 122.728 14.5078 123.413 14.3438C124.099 14.1797 124.79 14.0977 125.487 14.0977C126.179 14.0977 126.891 14.2031 127.623 14.4141C128.361 14.625 128.918 14.8887 129.293 15.2051C129.662 15.5156 129.753 15.7969 129.565 16.0488L128.854 17.0068C128.613 17.335 128.291 17.3613 127.887 17.0859C127.629 16.9102 127.274 16.7139 126.823 16.4971C126.378 16.2803 125.912 16.1719 125.426 16.1719C125.08 16.1719 124.761 16.2012 124.468 16.2598C124.181 16.3184 123.926 16.459 123.703 16.6816C123.48 16.9043 123.369 17.1797 123.369 17.5078C123.369 17.8242 123.451 18.082 123.615 18.2812C123.779 18.4746 123.961 18.6211 124.16 18.7207C124.359 18.8145 124.562 18.8936 124.767 18.958C125.399 19.1631 125.965 19.3447 126.463 19.5029C126.961 19.6553 127.421 19.8252 127.843 20.0127C128.429 20.2764 128.877 20.54 129.188 20.8037C129.498 21.0674 129.753 21.4277 129.952 21.8848C130.157 22.3418 130.26 22.8867 130.26 23.5195C130.26 24.457 129.961 25.2334 129.363 25.8486C128.766 26.458 128.101 26.8506 127.368 27.0264C126.642 27.208 125.933 27.2988 125.241 27.2988C124.222 27.2988 123.393 27.1992 122.754 27C122.115 26.8066 121.509 26.4932 120.935 26.0596Z" fill="#1556F7"/>
<path d="M65.1855 27C64.834 27 64.6582 26.8242 64.6582 26.4727V16.0928C64.6582 15.8291 64.7197 15.5889 64.8428 15.3721L65.5195 14.1855C65.6484 13.9629 65.8008 13.8516 65.9766 13.8516H66.5918C66.9434 13.8516 67.1191 14.0273 67.1191 14.3789V26.4727C67.1191 26.8242 66.9434 27 66.5918 27H65.1855ZM69.4922 23.168V18.2988C69.4922 17.9473 69.668 17.7715 70.0195 17.7715H71.4258C71.7773 17.7715 71.9531 17.9473 71.9531 18.2988V22.5352C71.9531 23.8125 72.041 24.6182 72.2168 24.9521C72.3926 25.2861 72.7617 25.4531 73.3242 25.4531C73.9219 25.4531 74.376 25.2158 74.6865 24.7412C74.9971 24.2607 75.1523 23.2676 75.1523 21.7617V18.2988C75.1523 17.9473 75.3281 17.7715 75.6797 17.7715H77.0859C77.4375 17.7715 77.6133 17.9473 77.6133 18.2988V26.4727C77.6133 26.8242 77.4375 27 77.0859 27H75.6973C75.3457 27 75.1699 26.8242 75.1699 26.4727V25.9629H75.1348C74.8652 26.4258 74.5225 26.7451 74.1064 26.9209C73.6904 27.0908 73.1982 27.1758 72.6299 27.1758C71.7334 27.1758 70.9863 26.8887 70.3887 26.3145C69.791 25.7402 69.4922 24.6914 69.4922 23.168ZM80.5312 27C80.1797 27 80.0039 26.8242 80.0039 26.4727V14.5547C80.0039 14.2031 80.1797 14.0273 80.5312 14.0273H81.9375C82.2891 14.0273 82.4648 14.2031 82.4648 14.5547V18.1055C82.4648 18.3398 82.4531 18.5742 82.4297 18.8086H82.4648C82.7695 18.3047 83.1094 17.9766 83.4844 17.8242C83.8594 17.6719 84.3105 17.5957 84.8379 17.5957C86.2148 17.5957 87.1816 18.0732 87.7383 19.0283C88.3008 19.9775 88.582 21.0967 88.582 22.3857C88.582 23.6748 88.3008 24.7969 87.7383 25.752C87.1816 26.7012 86.2148 27.1758 84.8379 27.1758C84.3105 27.1758 83.8594 27.0996 83.4844 26.9473C83.1094 26.7949 82.7695 26.4668 82.4648 25.9629H82.4297L82.3945 26.4727C82.3711 26.8242 82.2129 27 81.9199 27H80.5312ZM82.4648 22.7812C82.4648 23.5723 82.6201 24.2168 82.9307 24.7148C83.2471 25.207 83.625 25.4531 84.0645 25.4531C84.8555 25.4531 85.3711 25.1777 85.6113 24.627C85.8574 24.0703 85.9805 23.3232 85.9805 22.3857C85.9805 21.4482 85.8574 20.7041 85.6113 20.1533C85.3711 19.5967 84.8555 19.3184 84.0645 19.3184C83.625 19.3184 83.2471 19.5674 82.9307 20.0654C82.6201 20.5576 82.4648 21.1992 82.4648 21.9902V22.7812ZM97.1602 27C96.8086 27 96.6328 26.8242 96.6328 26.4727V18.2988C96.6328 17.9473 96.8086 17.7715 97.1602 17.7715H98.5664C98.918 17.7715 99.0938 17.9473 99.0938 18.2988V26.4727C99.0938 26.8242 98.918 27 98.5664 27H97.1602ZM97.1602 16.418C96.8086 16.418 96.6328 16.2422 96.6328 15.8906V14.7656C96.6328 14.4141 96.8086 14.2383 97.1602 14.2383H98.5664C98.918 14.2383 99.0938 14.4141 99.0938 14.7656V15.8906C99.0938 16.2422 98.918 16.418 98.5664 16.418H97.1602ZM131.578 22.3857C131.578 20.9033 131.947 19.7344 132.686 18.8789C133.43 18.0234 134.479 17.5957 135.832 17.5957C137.402 17.5957 138.568 18 139.33 18.8086C140.092 19.6172 140.473 20.918 140.473 22.7109C140.473 23.0625 140.309 23.2383 139.98 23.2383H134.18C134.273 24.2109 134.514 24.8232 134.9 25.0752C135.287 25.3271 135.735 25.4531 136.245 25.4531C136.731 25.4531 137.104 25.3887 137.361 25.2598C137.619 25.1309 137.836 24.9551 138.012 24.7324C138.211 24.4746 138.457 24.4336 138.75 24.6094L139.629 25.1455C139.975 25.3564 140.024 25.6084 139.778 25.9014C139.421 26.3291 139.002 26.6484 138.521 26.8594C138.041 27.0703 137.282 27.1758 136.245 27.1758C134.563 27.1758 133.365 26.748 132.65 25.8926C131.936 25.0371 131.578 23.8682 131.578 22.3857ZM134.188 21.4805H138.012C138.012 20.8477 137.854 20.332 137.537 19.9336C137.221 19.5293 136.717 19.3271 136.025 19.3271C135.475 19.3271 135.038 19.5205 134.716 19.9072C134.394 20.2881 134.218 20.8125 134.188 21.4805ZM141.896 24.5391C141.896 23.3672 142.456 22.5176 143.575 21.9902C144.694 21.4629 145.972 21.1816 147.407 21.1465V20.7949C147.407 20.2559 147.272 19.875 147.003 19.6523C146.733 19.4297 146.358 19.3184 145.878 19.3184C145.538 19.3184 145.236 19.3682 144.973 19.4678C144.715 19.5615 144.489 19.6729 144.296 19.8018C144.108 19.9248 143.938 20.0508 143.786 20.1797C143.517 20.4141 143.294 20.4258 143.118 20.2148L142.389 19.3184C142.207 19.0957 142.251 18.8672 142.521 18.6328C142.726 18.4512 142.963 18.293 143.232 18.1582C143.508 18.0234 143.871 17.8975 144.322 17.7803C144.773 17.6572 145.359 17.5957 146.08 17.5957C147.299 17.5957 148.233 17.877 148.884 18.4395C149.54 19.002 149.868 19.8311 149.868 20.9268V26.4727C149.868 26.8242 149.692 27 149.341 27H147.899C147.583 27 147.425 26.8242 147.425 26.4727V26.209H147.407C147.062 26.543 146.646 26.7891 146.159 26.9473C145.679 27.0996 145.236 27.1758 144.832 27.1758C143.871 27.1758 143.142 26.9414 142.644 26.4727C142.146 25.998 141.896 25.3535 141.896 24.5391ZM144.498 24.4863C144.498 24.6914 144.539 24.8701 144.621 25.0225C144.703 25.1689 144.832 25.2773 145.008 25.3477C145.184 25.418 145.38 25.4531 145.597 25.4531C145.896 25.4531 146.186 25.4121 146.467 25.3301C146.748 25.248 147.062 25.0547 147.407 24.75V22.8428C146.423 22.9541 145.764 23.0977 145.43 23.2734C145.096 23.4492 144.855 23.6309 144.709 23.8184C144.568 24.0059 144.498 24.2285 144.498 24.4863ZM152.795 27C152.443 27 152.268 26.8242 152.268 26.4727V18.2988C152.268 17.9473 152.443 17.7715 152.795 17.7715H154.184C154.535 17.7715 154.711 17.9473 154.711 18.2988V19.0195H154.746C154.898 18.6445 155.153 18.3135 155.511 18.0264C155.868 17.7393 156.29 17.5957 156.776 17.5957C157.11 17.5957 157.386 17.6367 157.603 17.7188C157.808 17.7949 157.887 17.9355 157.84 18.1406L157.594 19.1865C157.541 19.4209 157.383 19.4912 157.119 19.3975C156.967 19.3447 156.82 19.3184 156.68 19.3184C156.117 19.3184 155.651 19.6553 155.282 20.3291C154.913 21.0029 154.729 21.9844 154.729 23.2734V26.4727C154.729 26.8242 154.553 27 154.201 27H152.795ZM158.684 22.3857C158.684 20.8916 159.059 19.7197 159.809 18.8701C160.559 18.0205 161.71 17.5957 163.263 17.5957C164.171 17.5957 164.877 17.7158 165.381 17.9561C165.885 18.1963 166.289 18.5479 166.594 19.0107C166.775 19.2861 166.746 19.5029 166.506 19.6611L165.574 20.2764C165.311 20.4521 165.079 20.3848 164.88 20.0742C164.78 19.9219 164.59 19.7578 164.309 19.582C164.027 19.4062 163.679 19.3184 163.263 19.3184C162.601 19.3184 162.105 19.5527 161.777 20.0215C161.449 20.4844 161.285 21.2725 161.285 22.3857C161.285 23.499 161.449 24.29 161.777 24.7588C162.105 25.2217 162.601 25.4531 163.263 25.4531C163.737 25.4531 164.121 25.3535 164.414 25.1543C164.707 24.9551 164.982 24.6973 165.24 24.3809C165.463 24.1113 165.697 24.0732 165.943 24.2666L166.761 24.9082C167.007 25.1016 167.021 25.3594 166.805 25.6816C166.576 26.0215 166.187 26.3555 165.636 26.6836C165.091 27.0117 164.3 27.1758 163.263 27.1758C161.71 27.1758 160.559 26.751 159.809 25.9014C159.059 25.0518 158.684 23.8799 158.684 22.3857ZM169.248 27C168.896 27 168.721 26.8242 168.721 26.4727V14.5547C168.721 14.2031 168.896 14.0273 169.248 14.0273H170.654C171.006 14.0273 171.182 14.2031 171.182 14.5547V18.1055C171.182 18.3398 171.17 18.5742 171.146 18.8086H171.199C171.469 18.3457 171.812 18.0293 172.228 17.8594C172.644 17.6836 173.145 17.5957 173.73 17.5957C174.645 17.5957 175.4 17.8828 175.998 18.457C176.596 19.0312 176.895 20.0801 176.895 21.6035V26.4727C176.895 26.8242 176.719 27 176.367 27H174.961C174.609 27 174.434 26.8242 174.434 26.4727V22.2363C174.434 20.959 174.346 20.1533 174.17 19.8193C173.994 19.4854 173.616 19.3184 173.036 19.3184C172.421 19.3184 171.958 19.5586 171.647 20.0391C171.337 20.5137 171.182 21.5039 171.182 23.0098V26.4727C171.182 26.8242 171.006 27 170.654 27H169.248Z" fill="white"/>
</mask>
<g mask="url(#mask1_26_51)">
<circle cx="174.5" cy="16.5" r="7.5" fill="#A2B5F7" fill-opacity="0.77"/>
<circle cx="61.5" cy="14.5" r="7.5" fill="#A2B5F7" fill-opacity="0.77"/>
<circle cx="84.5" cy="26.5" r="7.5" fill="#1556F7" fill-opacity="0.78"/>
<circle cx="128.5" cy="27.5" r="7.5" fill="#A2B5F7" fill-opacity="0.77"/>
<circle cx="151.5" cy="17.5" r="7.5" fill="#1556F7" fill-opacity="0.78"/>
<circle cx="104.5" cy="14.5" r="7.5" fill="#A2B5F7" fill-opacity="0.77"/>
</g>
</svg>
