<svg width="212" height="43" viewBox="0 0 212 43" fill="none" xmlns="http://www.w3.org/2000/svg">
<path d="M1.25977 19.4971C1.25977 16.1279 2.11426 13.4521 3.82324 11.4697C5.53223 9.4873 7.99805 8.49609 11.2207 8.49609C13.0762 8.49609 14.6484 8.78418 15.9375 9.36035C17.2266 9.93652 18.1348 10.7715 18.6621 11.8652C19.0137 12.5879 18.9551 13.0762 18.4863 13.3301L16.7285 14.2676C16.1133 14.5996 15.6055 14.4141 15.2051 13.7109C14.9512 13.2617 14.4775 12.8564 13.7842 12.4951C13.1006 12.1338 12.2949 11.9531 11.3672 11.9531C9.31641 11.9531 7.88086 12.6025 7.06055 13.9014C6.24023 15.1904 5.83008 17.0557 5.83008 19.4971C5.83008 21.9385 6.24023 23.8086 7.06055 25.1074C7.88086 26.3965 9.31641 27.041 11.3672 27.041C12.4707 27.041 13.3984 26.792 14.1504 26.2939C14.9121 25.7959 15.4395 25.3223 15.7324 24.873C16.2109 24.1406 16.7188 23.9551 17.2559 24.3164L19.0137 25.4883C19.4922 25.8105 19.541 26.2988 19.1602 26.9531C18.5938 27.9297 17.6221 28.7646 16.2451 29.458C14.8682 30.1514 13.1934 30.498 11.2207 30.498C8.04688 30.498 5.59082 29.5068 3.85254 27.5244C2.12402 25.542 1.25977 22.8662 1.25977 19.4971ZM85.5176 30C84.834 30 84.4922 29.6338 84.4922 28.9014V10.0928C84.4922 9.36035 84.834 8.99414 85.5176 8.99414H87.6855C88.5254 8.99414 89.1602 9.33594 89.5898 10.0195L97.0605 22.0166H97.1631C97.1143 21.4307 97.0898 20.8447 97.0898 20.2588V10.0928C97.0898 9.36035 97.4316 8.99414 98.1152 8.99414H100.342C101.025 8.99414 101.367 9.36035 101.367 10.0928V28.9014C101.367 29.6338 101.025 30 100.342 30H98.3203C97.4805 30 96.8457 29.6582 96.416 28.9746L88.7988 16.7578H88.6963C88.7451 17.3438 88.7695 17.9297 88.7695 18.5156V28.9014C88.7695 29.6338 88.4277 30 87.7441 30H85.5176ZM116.558 28.4326C115.952 27.9736 115.806 27.5098 116.118 27.041L117.246 25.3418C117.617 24.7852 118.159 24.7559 118.872 25.2539C119.419 25.6348 120.132 26.0303 121.011 26.4404C121.899 26.8408 122.832 27.041 123.809 27.041C124.492 27.041 125.151 26.9629 125.786 26.8066C126.421 26.6504 126.904 26.3477 127.236 25.8984C127.568 25.4492 127.734 24.917 127.734 24.3018C127.734 23.8623 127.661 23.4766 127.515 23.1445C127.368 22.8125 127.129 22.5391 126.797 22.3242C126.465 22.1094 126.123 21.9287 125.771 21.7822C125.156 21.5283 124.38 21.2793 123.442 21.0352C122.515 20.7812 121.597 20.4785 120.688 20.127C119.878 19.8145 119.136 19.3848 118.462 18.8379C117.788 18.291 117.266 17.6758 116.895 16.9922C116.523 16.3086 116.338 15.3955 116.338 14.2529C116.338 12.8955 116.777 11.7334 117.656 10.7666C118.535 9.7998 119.546 9.17969 120.688 8.90625C121.831 8.63281 122.983 8.49609 124.146 8.49609C125.298 8.49609 126.484 8.67188 127.705 9.02344C128.936 9.375 129.863 9.81445 130.488 10.3418C131.104 10.8594 131.255 11.3281 130.942 11.748L129.756 13.3447C129.355 13.8916 128.818 13.9355 128.145 13.4766C127.715 13.1836 127.124 12.8564 126.372 12.4951C125.63 12.1338 124.854 11.9531 124.043 11.9531C123.467 11.9531 122.935 12.002 122.446 12.0996C121.968 12.1973 121.543 12.4316 121.172 12.8027C120.801 13.1738 120.615 13.6328 120.615 14.1797C120.615 14.707 120.752 15.1367 121.025 15.4688C121.299 15.791 121.602 16.0352 121.934 16.2012C122.266 16.3574 122.603 16.4893 122.944 16.5967C123.999 16.9385 124.941 17.2412 125.771 17.5049C126.602 17.7588 127.368 18.042 128.071 18.3545C129.048 18.7939 129.795 19.2334 130.312 19.6729C130.83 20.1123 131.255 20.7129 131.587 21.4746C131.929 22.2363 132.1 23.1445 132.1 24.1992C132.1 25.7617 131.602 27.0557 130.605 28.0811C129.609 29.0967 128.501 29.751 127.28 30.0439C126.069 30.3467 124.888 30.498 123.735 30.498C122.036 30.498 120.654 30.332 119.59 30C118.525 29.6777 117.515 29.1553 116.558 28.4326Z" fill="#1556F7"/>
<path d="M23.6426 30C23.0566 30 22.7637 29.707 22.7637 29.1211V11.8213C22.7637 11.3818 22.8662 10.9814 23.0713 10.6201L24.1992 8.64258C24.4141 8.27148 24.668 8.08594 24.9609 8.08594H25.9863C26.5723 8.08594 26.8652 8.37891 26.8652 8.96484V29.1211C26.8652 29.707 26.5723 30 25.9863 30H23.6426ZM30.8203 23.6133V15.498C30.8203 14.9121 31.1133 14.6191 31.6992 14.6191H34.043C34.6289 14.6191 34.9219 14.9121 34.9219 15.498V22.5586C34.9219 24.6875 35.0684 26.0303 35.3613 26.5869C35.6543 27.1436 36.2695 27.4219 37.207 27.4219C38.2031 27.4219 38.96 27.0264 39.4775 26.2354C39.9951 25.4346 40.2539 23.7793 40.2539 21.2695V15.498C40.2539 14.9121 40.5469 14.6191 41.1328 14.6191H43.4766C44.0625 14.6191 44.3555 14.9121 44.3555 15.498V29.1211C44.3555 29.707 44.0625 30 43.4766 30H41.1621C40.5762 30 40.2832 29.707 40.2832 29.1211V28.2715H40.2246C39.7754 29.043 39.2041 29.5752 38.5107 29.8682C37.8174 30.1514 36.9971 30.293 36.0498 30.293C34.5557 30.293 33.3105 29.8145 32.3145 28.8574C31.3184 27.9004 30.8203 26.1523 30.8203 23.6133ZM49.2188 30C48.6328 30 48.3398 29.707 48.3398 29.1211V9.25781C48.3398 8.67188 48.6328 8.37891 49.2188 8.37891H51.5625C52.1484 8.37891 52.4414 8.67188 52.4414 9.25781V15.1758C52.4414 15.5664 52.4219 15.957 52.3828 16.3477H52.4414C52.9492 15.5078 53.5156 14.9609 54.1406 14.707C54.7656 14.4531 55.5176 14.3262 56.3965 14.3262C58.6914 14.3262 60.3027 15.1221 61.2305 16.7139C62.168 18.2959 62.6367 20.1611 62.6367 22.3096C62.6367 24.458 62.168 26.3281 61.2305 27.9199C60.3027 29.502 58.6914 30.293 56.3965 30.293C55.5176 30.293 54.7656 30.166 54.1406 29.9121C53.5156 29.6582 52.9492 29.1113 52.4414 28.2715H52.3828L52.3242 29.1211C52.2852 29.707 52.0215 30 51.5332 30H49.2188ZM52.4414 22.9688C52.4414 24.2871 52.7002 25.3613 53.2178 26.1914C53.7451 27.0117 54.375 27.4219 55.1074 27.4219C56.4258 27.4219 57.2852 26.9629 57.6855 26.0449C58.0957 25.1172 58.3008 23.8721 58.3008 22.3096C58.3008 20.7471 58.0957 19.5068 57.6855 18.5889C57.2852 17.6611 56.4258 17.1973 55.1074 17.1973C54.375 17.1973 53.7451 17.6123 53.2178 18.4424C52.7002 19.2627 52.4414 20.332 52.4414 21.6504V22.9688ZM76.9336 30C76.3477 30 76.0547 29.707 76.0547 29.1211V15.498C76.0547 14.9121 76.3477 14.6191 76.9336 14.6191H79.2773C79.8633 14.6191 80.1562 14.9121 80.1562 15.498V29.1211C80.1562 29.707 79.8633 30 79.2773 30H76.9336ZM76.9336 12.3633C76.3477 12.3633 76.0547 12.0703 76.0547 11.4844V9.60938C76.0547 9.02344 76.3477 8.73047 76.9336 8.73047H79.2773C79.8633 8.73047 80.1562 9.02344 80.1562 9.60938V11.4844C80.1562 12.0703 79.8633 12.3633 79.2773 12.3633H76.9336ZM134.297 22.3096C134.297 19.8389 134.912 17.8906 136.143 16.4648C137.383 15.0391 139.131 14.3262 141.387 14.3262C144.004 14.3262 145.947 15 147.217 16.3477C148.486 17.6953 149.121 19.8633 149.121 22.8516C149.121 23.4375 148.848 23.7305 148.301 23.7305H138.633C138.789 25.3516 139.189 26.3721 139.834 26.792C140.479 27.2119 141.226 27.4219 142.075 27.4219C142.886 27.4219 143.506 27.3145 143.936 27.0996C144.365 26.8848 144.727 26.5918 145.02 26.2207C145.352 25.791 145.762 25.7227 146.25 26.0156L147.715 26.9092C148.291 27.2607 148.374 27.6807 147.964 28.1689C147.368 28.8818 146.67 29.4141 145.869 29.7656C145.068 30.1172 143.804 30.293 142.075 30.293C139.272 30.293 137.275 29.5801 136.084 28.1543C134.893 26.7285 134.297 24.7803 134.297 22.3096ZM138.647 20.8008H145.02C145.02 19.7461 144.756 18.8867 144.229 18.2227C143.701 17.5488 142.861 17.2119 141.709 17.2119C140.791 17.2119 140.063 17.5342 139.526 18.1787C138.989 18.8135 138.696 19.6875 138.647 20.8008ZM151.494 25.8984C151.494 23.9453 152.427 22.5293 154.292 21.6504C156.157 20.7715 158.286 20.3027 160.679 20.2441V19.6582C160.679 18.7598 160.454 18.125 160.005 17.7539C159.556 17.3828 158.931 17.1973 158.13 17.1973C157.563 17.1973 157.061 17.2803 156.621 17.4463C156.191 17.6025 155.815 17.7881 155.493 18.0029C155.181 18.208 154.897 18.418 154.644 18.6328C154.194 19.0234 153.823 19.043 153.53 18.6914L152.314 17.1973C152.012 16.8262 152.085 16.4453 152.534 16.0547C152.876 15.752 153.271 15.4883 153.721 15.2637C154.18 15.0391 154.785 14.8291 155.537 14.6338C156.289 14.4287 157.266 14.3262 158.467 14.3262C160.498 14.3262 162.056 14.7949 163.14 15.7324C164.233 16.6699 164.78 18.0518 164.78 19.8779V29.1211C164.78 29.707 164.487 30 163.901 30H161.499C160.972 30 160.708 29.707 160.708 29.1211V28.6816H160.679C160.103 29.2383 159.409 29.6484 158.599 29.9121C157.798 30.166 157.061 30.293 156.387 30.293C154.785 30.293 153.569 29.9023 152.739 29.1211C151.909 28.3301 151.494 27.2559 151.494 25.8984ZM155.83 25.8105C155.83 26.1523 155.898 26.4502 156.035 26.7041C156.172 26.9482 156.387 27.1289 156.68 27.2461C156.973 27.3633 157.3 27.4219 157.661 27.4219C158.159 27.4219 158.643 27.3535 159.111 27.2168C159.58 27.0801 160.103 26.7578 160.679 26.25V23.0713C159.038 23.2568 157.939 23.4961 157.383 23.7891C156.826 24.082 156.426 24.3848 156.182 24.6973C155.947 25.0098 155.83 25.3809 155.83 25.8105ZM169.658 30C169.072 30 168.779 29.707 168.779 29.1211V15.498C168.779 14.9121 169.072 14.6191 169.658 14.6191H171.973C172.559 14.6191 172.852 14.9121 172.852 15.498V16.6992H172.91C173.164 16.0742 173.589 15.5225 174.185 15.0439C174.78 14.5654 175.483 14.3262 176.294 14.3262C176.851 14.3262 177.31 14.3945 177.671 14.5312C178.013 14.6582 178.145 14.8926 178.066 15.2344L177.656 16.9775C177.568 17.3682 177.305 17.4854 176.865 17.3291C176.611 17.2412 176.367 17.1973 176.133 17.1973C175.195 17.1973 174.419 17.7588 173.804 18.8818C173.188 20.0049 172.881 21.6406 172.881 23.7891V29.1211C172.881 29.707 172.588 30 172.002 30H169.658ZM179.473 22.3096C179.473 19.8193 180.098 17.8662 181.348 16.4502C182.598 15.0342 184.517 14.3262 187.104 14.3262C188.618 14.3262 189.795 14.5264 190.635 14.9268C191.475 15.3271 192.148 15.9131 192.656 16.6846C192.959 17.1436 192.91 17.5049 192.51 17.7686L190.957 18.7939C190.518 19.0869 190.132 18.9746 189.8 18.457C189.634 18.2031 189.316 17.9297 188.848 17.6367C188.379 17.3438 187.798 17.1973 187.104 17.1973C186.001 17.1973 185.176 17.5879 184.629 18.3691C184.082 19.1406 183.809 20.4541 183.809 22.3096C183.809 24.165 184.082 25.4834 184.629 26.2646C185.176 27.0361 186.001 27.4219 187.104 27.4219C187.896 27.4219 188.535 27.2559 189.023 26.9238C189.512 26.5918 189.971 26.1621 190.4 25.6348C190.771 25.1855 191.162 25.1221 191.572 25.4443L192.935 26.5137C193.345 26.8359 193.369 27.2656 193.008 27.8027C192.627 28.3691 191.978 28.9258 191.06 29.4727C190.151 30.0195 188.833 30.293 187.104 30.293C184.517 30.293 182.598 29.585 181.348 28.1689C180.098 26.7529 179.473 24.7998 179.473 22.3096ZM197.08 30C196.494 30 196.201 29.707 196.201 29.1211V9.25781C196.201 8.67188 196.494 8.37891 197.08 8.37891H199.424C200.01 8.37891 200.303 8.67188 200.303 9.25781V15.1758C200.303 15.5664 200.283 15.957 200.244 16.3477H200.332C200.781 15.5762 201.353 15.0488 202.046 14.7656C202.739 14.4727 203.574 14.3262 204.551 14.3262C206.074 14.3262 207.334 14.8047 208.33 15.7617C209.326 16.7188 209.824 18.4668 209.824 21.0059V29.1211C209.824 29.707 209.531 30 208.945 30H206.602C206.016 30 205.723 29.707 205.723 29.1211V22.0605C205.723 19.9316 205.576 18.5889 205.283 18.0322C204.99 17.4756 204.36 17.1973 203.394 17.1973C202.368 17.1973 201.597 17.5977 201.079 18.3984C200.562 19.1895 200.303 20.8398 200.303 23.3496V29.1211C200.303 29.707 200.01 30 199.424 30H197.08Z" fill="black"/>
<mask id="mask0_889_275" style="mask-type:alpha" maskUnits="userSpaceOnUse" x="1" y="8" width="209" height="23">
<path d="M1.25977 19.4971C1.25977 16.1279 2.11426 13.4521 3.82324 11.4697C5.53223 9.4873 7.99805 8.49609 11.2207 8.49609C13.0762 8.49609 14.6484 8.78418 15.9375 9.36035C17.2266 9.93652 18.1348 10.7715 18.6621 11.8652C19.0137 12.5879 18.9551 13.0762 18.4863 13.3301L16.7285 14.2676C16.1133 14.5996 15.6055 14.4141 15.2051 13.7109C14.9512 13.2617 14.4775 12.8564 13.7842 12.4951C13.1006 12.1338 12.2949 11.9531 11.3672 11.9531C9.31641 11.9531 7.88086 12.6025 7.06055 13.9014C6.24023 15.1904 5.83008 17.0557 5.83008 19.4971C5.83008 21.9385 6.24023 23.8086 7.06055 25.1074C7.88086 26.3965 9.31641 27.041 11.3672 27.041C12.4707 27.041 13.3984 26.792 14.1504 26.2939C14.9121 25.7959 15.4395 25.3223 15.7324 24.873C16.2109 24.1406 16.7188 23.9551 17.2559 24.3164L19.0137 25.4883C19.4922 25.8105 19.541 26.2988 19.1602 26.9531C18.5938 27.9297 17.6221 28.7646 16.2451 29.458C14.8682 30.1514 13.1934 30.498 11.2207 30.498C8.04688 30.498 5.59082 29.5068 3.85254 27.5244C2.12402 25.542 1.25977 22.8662 1.25977 19.4971ZM85.5176 30C84.834 30 84.4922 29.6338 84.4922 28.9014V10.0928C84.4922 9.36035 84.834 8.99414 85.5176 8.99414H87.6855C88.5254 8.99414 89.1602 9.33594 89.5898 10.0195L97.0605 22.0166H97.1631C97.1143 21.4307 97.0898 20.8447 97.0898 20.2588V10.0928C97.0898 9.36035 97.4316 8.99414 98.1152 8.99414H100.342C101.025 8.99414 101.367 9.36035 101.367 10.0928V28.9014C101.367 29.6338 101.025 30 100.342 30H98.3203C97.4805 30 96.8457 29.6582 96.416 28.9746L88.7988 16.7578H88.6963C88.7451 17.3438 88.7695 17.9297 88.7695 18.5156V28.9014C88.7695 29.6338 88.4277 30 87.7441 30H85.5176ZM116.558 28.4326C115.952 27.9736 115.806 27.5098 116.118 27.041L117.246 25.3418C117.617 24.7852 118.159 24.7559 118.872 25.2539C119.419 25.6348 120.132 26.0303 121.011 26.4404C121.899 26.8408 122.832 27.041 123.809 27.041C124.492 27.041 125.151 26.9629 125.786 26.8066C126.421 26.6504 126.904 26.3477 127.236 25.8984C127.568 25.4492 127.734 24.917 127.734 24.3018C127.734 23.8623 127.661 23.4766 127.515 23.1445C127.368 22.8125 127.129 22.5391 126.797 22.3242C126.465 22.1094 126.123 21.9287 125.771 21.7822C125.156 21.5283 124.38 21.2793 123.442 21.0352C122.515 20.7812 121.597 20.4785 120.688 20.127C119.878 19.8145 119.136 19.3848 118.462 18.8379C117.788 18.291 117.266 17.6758 116.895 16.9922C116.523 16.3086 116.338 15.3955 116.338 14.2529C116.338 12.8955 116.777 11.7334 117.656 10.7666C118.535 9.7998 119.546 9.17969 120.688 8.90625C121.831 8.63281 122.983 8.49609 124.146 8.49609C125.298 8.49609 126.484 8.67188 127.705 9.02344C128.936 9.375 129.863 9.81445 130.488 10.3418C131.104 10.8594 131.255 11.3281 130.942 11.748L129.756 13.3447C129.355 13.8916 128.818 13.9355 128.145 13.4766C127.715 13.1836 127.124 12.8564 126.372 12.4951C125.63 12.1338 124.854 11.9531 124.043 11.9531C123.467 11.9531 122.935 12.002 122.446 12.0996C121.968 12.1973 121.543 12.4316 121.172 12.8027C120.801 13.1738 120.615 13.6328 120.615 14.1797C120.615 14.707 120.752 15.1367 121.025 15.4688C121.299 15.791 121.602 16.0352 121.934 16.2012C122.266 16.3574 122.603 16.4893 122.944 16.5967C123.999 16.9385 124.941 17.2412 125.771 17.5049C126.602 17.7588 127.368 18.042 128.071 18.3545C129.048 18.7939 129.795 19.2334 130.312 19.6729C130.83 20.1123 131.255 20.7129 131.587 21.4746C131.929 22.2363 132.1 23.1445 132.1 24.1992C132.1 25.7617 131.602 27.0557 130.605 28.0811C129.609 29.0967 128.501 29.751 127.28 30.0439C126.069 30.3467 124.888 30.498 123.735 30.498C122.036 30.498 120.654 30.332 119.59 30C118.525 29.6777 117.515 29.1553 116.558 28.4326Z" fill="#1556F7"/>
<path d="M23.6426 30C23.0566 30 22.7637 29.707 22.7637 29.1211V11.8213C22.7637 11.3818 22.8662 10.9814 23.0713 10.6201L24.1992 8.64258C24.4141 8.27148 24.668 8.08594 24.9609 8.08594H25.9863C26.5723 8.08594 26.8652 8.37891 26.8652 8.96484V29.1211C26.8652 29.707 26.5723 30 25.9863 30H23.6426ZM30.8203 23.6133V15.498C30.8203 14.9121 31.1133 14.6191 31.6992 14.6191H34.043C34.6289 14.6191 34.9219 14.9121 34.9219 15.498V22.5586C34.9219 24.6875 35.0684 26.0303 35.3613 26.5869C35.6543 27.1436 36.2695 27.4219 37.207 27.4219C38.2031 27.4219 38.96 27.0264 39.4775 26.2354C39.9951 25.4346 40.2539 23.7793 40.2539 21.2695V15.498C40.2539 14.9121 40.5469 14.6191 41.1328 14.6191H43.4766C44.0625 14.6191 44.3555 14.9121 44.3555 15.498V29.1211C44.3555 29.707 44.0625 30 43.4766 30H41.1621C40.5762 30 40.2832 29.707 40.2832 29.1211V28.2715H40.2246C39.7754 29.043 39.2041 29.5752 38.5107 29.8682C37.8174 30.1514 36.9971 30.293 36.0498 30.293C34.5557 30.293 33.3105 29.8145 32.3145 28.8574C31.3184 27.9004 30.8203 26.1523 30.8203 23.6133ZM49.2188 30C48.6328 30 48.3398 29.707 48.3398 29.1211V9.25781C48.3398 8.67188 48.6328 8.37891 49.2188 8.37891H51.5625C52.1484 8.37891 52.4414 8.67188 52.4414 9.25781V15.1758C52.4414 15.5664 52.4219 15.957 52.3828 16.3477H52.4414C52.9492 15.5078 53.5156 14.9609 54.1406 14.707C54.7656 14.4531 55.5176 14.3262 56.3965 14.3262C58.6914 14.3262 60.3027 15.1221 61.2305 16.7139C62.168 18.2959 62.6367 20.1611 62.6367 22.3096C62.6367 24.458 62.168 26.3281 61.2305 27.9199C60.3027 29.502 58.6914 30.293 56.3965 30.293C55.5176 30.293 54.7656 30.166 54.1406 29.9121C53.5156 29.6582 52.9492 29.1113 52.4414 28.2715H52.3828L52.3242 29.1211C52.2852 29.707 52.0215 30 51.5332 30H49.2188ZM52.4414 22.9688C52.4414 24.2871 52.7002 25.3613 53.2178 26.1914C53.7451 27.0117 54.375 27.4219 55.1074 27.4219C56.4258 27.4219 57.2852 26.9629 57.6855 26.0449C58.0957 25.1172 58.3008 23.8721 58.3008 22.3096C58.3008 20.7471 58.0957 19.5068 57.6855 18.5889C57.2852 17.6611 56.4258 17.1973 55.1074 17.1973C54.375 17.1973 53.7451 17.6123 53.2178 18.4424C52.7002 19.2627 52.4414 20.332 52.4414 21.6504V22.9688ZM76.9336 30C76.3477 30 76.0547 29.707 76.0547 29.1211V15.498C76.0547 14.9121 76.3477 14.6191 76.9336 14.6191H79.2773C79.8633 14.6191 80.1562 14.9121 80.1562 15.498V29.1211C80.1562 29.707 79.8633 30 79.2773 30H76.9336ZM76.9336 12.3633C76.3477 12.3633 76.0547 12.0703 76.0547 11.4844V9.60938C76.0547 9.02344 76.3477 8.73047 76.9336 8.73047H79.2773C79.8633 8.73047 80.1562 9.02344 80.1562 9.60938V11.4844C80.1562 12.0703 79.8633 12.3633 79.2773 12.3633H76.9336ZM134.297 22.3096C134.297 19.8389 134.912 17.8906 136.143 16.4648C137.383 15.0391 139.131 14.3262 141.387 14.3262C144.004 14.3262 145.947 15 147.217 16.3477C148.486 17.6953 149.121 19.8633 149.121 22.8516C149.121 23.4375 148.848 23.7305 148.301 23.7305H138.633C138.789 25.3516 139.189 26.3721 139.834 26.792C140.479 27.2119 141.226 27.4219 142.075 27.4219C142.886 27.4219 143.506 27.3145 143.936 27.0996C144.365 26.8848 144.727 26.5918 145.02 26.2207C145.352 25.791 145.762 25.7227 146.25 26.0156L147.715 26.9092C148.291 27.2607 148.374 27.6807 147.964 28.1689C147.368 28.8818 146.67 29.4141 145.869 29.7656C145.068 30.1172 143.804 30.293 142.075 30.293C139.272 30.293 137.275 29.5801 136.084 28.1543C134.893 26.7285 134.297 24.7803 134.297 22.3096ZM138.647 20.8008H145.02C145.02 19.7461 144.756 18.8867 144.229 18.2227C143.701 17.5488 142.861 17.2119 141.709 17.2119C140.791 17.2119 140.063 17.5342 139.526 18.1787C138.989 18.8135 138.696 19.6875 138.647 20.8008ZM151.494 25.8984C151.494 23.9453 152.427 22.5293 154.292 21.6504C156.157 20.7715 158.286 20.3027 160.679 20.2441V19.6582C160.679 18.7598 160.454 18.125 160.005 17.7539C159.556 17.3828 158.931 17.1973 158.13 17.1973C157.563 17.1973 157.061 17.2803 156.621 17.4463C156.191 17.6025 155.815 17.7881 155.493 18.0029C155.181 18.208 154.897 18.418 154.644 18.6328C154.194 19.0234 153.823 19.043 153.53 18.6914L152.314 17.1973C152.012 16.8262 152.085 16.4453 152.534 16.0547C152.876 15.752 153.271 15.4883 153.721 15.2637C154.18 15.0391 154.785 14.8291 155.537 14.6338C156.289 14.4287 157.266 14.3262 158.467 14.3262C160.498 14.3262 162.056 14.7949 163.14 15.7324C164.233 16.6699 164.78 18.0518 164.78 19.8779V29.1211C164.78 29.707 164.487 30 163.901 30H161.499C160.972 30 160.708 29.707 160.708 29.1211V28.6816H160.679C160.103 29.2383 159.409 29.6484 158.599 29.9121C157.798 30.166 157.061 30.293 156.387 30.293C154.785 30.293 153.569 29.9023 152.739 29.1211C151.909 28.3301 151.494 27.2559 151.494 25.8984ZM155.83 25.8105C155.83 26.1523 155.898 26.4502 156.035 26.7041C156.172 26.9482 156.387 27.1289 156.68 27.2461C156.973 27.3633 157.3 27.4219 157.661 27.4219C158.159 27.4219 158.643 27.3535 159.111 27.2168C159.58 27.0801 160.103 26.7578 160.679 26.25V23.0713C159.038 23.2568 157.939 23.4961 157.383 23.7891C156.826 24.082 156.426 24.3848 156.182 24.6973C155.947 25.0098 155.83 25.3809 155.83 25.8105ZM169.658 30C169.072 30 168.779 29.707 168.779 29.1211V15.498C168.779 14.9121 169.072 14.6191 169.658 14.6191H171.973C172.559 14.6191 172.852 14.9121 172.852 15.498V16.6992H172.91C173.164 16.0742 173.589 15.5225 174.185 15.0439C174.78 14.5654 175.483 14.3262 176.294 14.3262C176.851 14.3262 177.31 14.3945 177.671 14.5312C178.013 14.6582 178.145 14.8926 178.066 15.2344L177.656 16.9775C177.568 17.3682 177.305 17.4854 176.865 17.3291C176.611 17.2412 176.367 17.1973 176.133 17.1973C175.195 17.1973 174.419 17.7588 173.804 18.8818C173.188 20.0049 172.881 21.6406 172.881 23.7891V29.1211C172.881 29.707 172.588 30 172.002 30H169.658ZM179.473 22.3096C179.473 19.8193 180.098 17.8662 181.348 16.4502C182.598 15.0342 184.517 14.3262 187.104 14.3262C188.618 14.3262 189.795 14.5264 190.635 14.9268C191.475 15.3271 192.148 15.9131 192.656 16.6846C192.959 17.1436 192.91 17.5049 192.51 17.7686L190.957 18.7939C190.518 19.0869 190.132 18.9746 189.8 18.457C189.634 18.2031 189.316 17.9297 188.848 17.6367C188.379 17.3438 187.798 17.1973 187.104 17.1973C186.001 17.1973 185.176 17.5879 184.629 18.3691C184.082 19.1406 183.809 20.4541 183.809 22.3096C183.809 24.165 184.082 25.4834 184.629 26.2646C185.176 27.0361 186.001 27.4219 187.104 27.4219C187.896 27.4219 188.535 27.2559 189.023 26.9238C189.512 26.5918 189.971 26.1621 190.4 25.6348C190.771 25.1855 191.162 25.1221 191.572 25.4443L192.935 26.5137C193.345 26.8359 193.369 27.2656 193.008 27.8027C192.627 28.3691 191.978 28.9258 191.06 29.4727C190.151 30.0195 188.833 30.293 187.104 30.293C184.517 30.293 182.598 29.585 181.348 28.1689C180.098 26.7529 179.473 24.7998 179.473 22.3096ZM197.08 30C196.494 30 196.201 29.707 196.201 29.1211V9.25781C196.201 8.67188 196.494 8.37891 197.08 8.37891H199.424C200.01 8.37891 200.303 8.67188 200.303 9.25781V15.1758C200.303 15.5664 200.283 15.957 200.244 16.3477H200.332C200.781 15.5762 201.353 15.0488 202.046 14.7656C202.739 14.4727 203.574 14.3262 204.551 14.3262C206.074 14.3262 207.334 14.8047 208.33 15.7617C209.326 16.7188 209.824 18.4668 209.824 21.0059V29.1211C209.824 29.707 209.531 30 208.945 30H206.602C206.016 30 205.723 29.707 205.723 29.1211V22.0605C205.723 19.9316 205.576 18.5889 205.283 18.0322C204.99 17.4756 204.36 17.1973 203.394 17.1973C202.368 17.1973 201.597 17.5977 201.079 18.3984C200.562 19.1895 200.303 20.8398 200.303 23.3496V29.1211C200.303 29.707 200.01 30 199.424 30H197.08Z" fill="white"/>
</mask>
<g mask="url(#mask0_889_275)">
<circle cx="123.5" cy="7.5" r="7.5" fill="#A2B5F7" fill-opacity="0.77"/>
<circle cx="10.5" cy="5.5" r="7.5" fill="#A2B5F7" fill-opacity="0.77"/>
<circle cx="33.5" cy="17.5" r="7.5" fill="#1556F7" fill-opacity="0.78"/>
<circle cx="77.5" cy="18.5" r="7.5" fill="#A2B5F7" fill-opacity="0.77"/>
<circle cx="100.5" cy="8.5" r="7.5" fill="#1556F7" fill-opacity="0.78"/>
<circle cx="53.5" cy="5.5" r="7.5" fill="#A2B5F7" fill-opacity="0.77"/>
</g>
<mask id="mask1_889_275" style="mask-type:alpha" maskUnits="userSpaceOnUse" x="1" y="8" width="209" height="23">
<path d="M1.25977 19.4971C1.25977 16.1279 2.11426 13.4521 3.82324 11.4697C5.53223 9.4873 7.99805 8.49609 11.2207 8.49609C13.0762 8.49609 14.6484 8.78418 15.9375 9.36035C17.2266 9.93652 18.1348 10.7715 18.6621 11.8652C19.0137 12.5879 18.9551 13.0762 18.4863 13.3301L16.7285 14.2676C16.1133 14.5996 15.6055 14.4141 15.2051 13.7109C14.9512 13.2617 14.4775 12.8564 13.7842 12.4951C13.1006 12.1338 12.2949 11.9531 11.3672 11.9531C9.31641 11.9531 7.88086 12.6025 7.06055 13.9014C6.24023 15.1904 5.83008 17.0557 5.83008 19.4971C5.83008 21.9385 6.24023 23.8086 7.06055 25.1074C7.88086 26.3965 9.31641 27.041 11.3672 27.041C12.4707 27.041 13.3984 26.792 14.1504 26.2939C14.9121 25.7959 15.4395 25.3223 15.7324 24.873C16.2109 24.1406 16.7188 23.9551 17.2559 24.3164L19.0137 25.4883C19.4922 25.8105 19.541 26.2988 19.1602 26.9531C18.5938 27.9297 17.6221 28.7646 16.2451 29.458C14.8682 30.1514 13.1934 30.498 11.2207 30.498C8.04688 30.498 5.59082 29.5068 3.85254 27.5244C2.12402 25.542 1.25977 22.8662 1.25977 19.4971ZM85.5176 30C84.834 30 84.4922 29.6338 84.4922 28.9014V10.0928C84.4922 9.36035 84.834 8.99414 85.5176 8.99414H87.6855C88.5254 8.99414 89.1602 9.33594 89.5898 10.0195L97.0605 22.0166H97.1631C97.1143 21.4307 97.0898 20.8447 97.0898 20.2588V10.0928C97.0898 9.36035 97.4316 8.99414 98.1152 8.99414H100.342C101.025 8.99414 101.367 9.36035 101.367 10.0928V28.9014C101.367 29.6338 101.025 30 100.342 30H98.3203C97.4805 30 96.8457 29.6582 96.416 28.9746L88.7988 16.7578H88.6963C88.7451 17.3438 88.7695 17.9297 88.7695 18.5156V28.9014C88.7695 29.6338 88.4277 30 87.7441 30H85.5176ZM116.558 28.4326C115.952 27.9736 115.806 27.5098 116.118 27.041L117.246 25.3418C117.617 24.7852 118.159 24.7559 118.872 25.2539C119.419 25.6348 120.132 26.0303 121.011 26.4404C121.899 26.8408 122.832 27.041 123.809 27.041C124.492 27.041 125.151 26.9629 125.786 26.8066C126.421 26.6504 126.904 26.3477 127.236 25.8984C127.568 25.4492 127.734 24.917 127.734 24.3018C127.734 23.8623 127.661 23.4766 127.515 23.1445C127.368 22.8125 127.129 22.5391 126.797 22.3242C126.465 22.1094 126.123 21.9287 125.771 21.7822C125.156 21.5283 124.38 21.2793 123.442 21.0352C122.515 20.7812 121.597 20.4785 120.688 20.127C119.878 19.8145 119.136 19.3848 118.462 18.8379C117.788 18.291 117.266 17.6758 116.895 16.9922C116.523 16.3086 116.338 15.3955 116.338 14.2529C116.338 12.8955 116.777 11.7334 117.656 10.7666C118.535 9.7998 119.546 9.17969 120.688 8.90625C121.831 8.63281 122.983 8.49609 124.146 8.49609C125.298 8.49609 126.484 8.67188 127.705 9.02344C128.936 9.375 129.863 9.81445 130.488 10.3418C131.104 10.8594 131.255 11.3281 130.942 11.748L129.756 13.3447C129.355 13.8916 128.818 13.9355 128.145 13.4766C127.715 13.1836 127.124 12.8564 126.372 12.4951C125.63 12.1338 124.854 11.9531 124.043 11.9531C123.467 11.9531 122.935 12.002 122.446 12.0996C121.968 12.1973 121.543 12.4316 121.172 12.8027C120.801 13.1738 120.615 13.6328 120.615 14.1797C120.615 14.707 120.752 15.1367 121.025 15.4688C121.299 15.791 121.602 16.0352 121.934 16.2012C122.266 16.3574 122.603 16.4893 122.944 16.5967C123.999 16.9385 124.941 17.2412 125.771 17.5049C126.602 17.7588 127.368 18.042 128.071 18.3545C129.048 18.7939 129.795 19.2334 130.312 19.6729C130.83 20.1123 131.255 20.7129 131.587 21.4746C131.929 22.2363 132.1 23.1445 132.1 24.1992C132.1 25.7617 131.602 27.0557 130.605 28.0811C129.609 29.0967 128.501 29.751 127.28 30.0439C126.069 30.3467 124.888 30.498 123.735 30.498C122.036 30.498 120.654 30.332 119.59 30C118.525 29.6777 117.515 29.1553 116.558 28.4326Z" fill="#1556F7"/>
<path d="M23.6426 30C23.0566 30 22.7637 29.707 22.7637 29.1211V11.8213C22.7637 11.3818 22.8662 10.9814 23.0713 10.6201L24.1992 8.64258C24.4141 8.27148 24.668 8.08594 24.9609 8.08594H25.9863C26.5723 8.08594 26.8652 8.37891 26.8652 8.96484V29.1211C26.8652 29.707 26.5723 30 25.9863 30H23.6426ZM30.8203 23.6133V15.498C30.8203 14.9121 31.1133 14.6191 31.6992 14.6191H34.043C34.6289 14.6191 34.9219 14.9121 34.9219 15.498V22.5586C34.9219 24.6875 35.0684 26.0303 35.3613 26.5869C35.6543 27.1436 36.2695 27.4219 37.207 27.4219C38.2031 27.4219 38.96 27.0264 39.4775 26.2354C39.9951 25.4346 40.2539 23.7793 40.2539 21.2695V15.498C40.2539 14.9121 40.5469 14.6191 41.1328 14.6191H43.4766C44.0625 14.6191 44.3555 14.9121 44.3555 15.498V29.1211C44.3555 29.707 44.0625 30 43.4766 30H41.1621C40.5762 30 40.2832 29.707 40.2832 29.1211V28.2715H40.2246C39.7754 29.043 39.2041 29.5752 38.5107 29.8682C37.8174 30.1514 36.9971 30.293 36.0498 30.293C34.5557 30.293 33.3105 29.8145 32.3145 28.8574C31.3184 27.9004 30.8203 26.1523 30.8203 23.6133ZM49.2188 30C48.6328 30 48.3398 29.707 48.3398 29.1211V9.25781C48.3398 8.67188 48.6328 8.37891 49.2188 8.37891H51.5625C52.1484 8.37891 52.4414 8.67188 52.4414 9.25781V15.1758C52.4414 15.5664 52.4219 15.957 52.3828 16.3477H52.4414C52.9492 15.5078 53.5156 14.9609 54.1406 14.707C54.7656 14.4531 55.5176 14.3262 56.3965 14.3262C58.6914 14.3262 60.3027 15.1221 61.2305 16.7139C62.168 18.2959 62.6367 20.1611 62.6367 22.3096C62.6367 24.458 62.168 26.3281 61.2305 27.9199C60.3027 29.502 58.6914 30.293 56.3965 30.293C55.5176 30.293 54.7656 30.166 54.1406 29.9121C53.5156 29.6582 52.9492 29.1113 52.4414 28.2715H52.3828L52.3242 29.1211C52.2852 29.707 52.0215 30 51.5332 30H49.2188ZM52.4414 22.9688C52.4414 24.2871 52.7002 25.3613 53.2178 26.1914C53.7451 27.0117 54.375 27.4219 55.1074 27.4219C56.4258 27.4219 57.2852 26.9629 57.6855 26.0449C58.0957 25.1172 58.3008 23.8721 58.3008 22.3096C58.3008 20.7471 58.0957 19.5068 57.6855 18.5889C57.2852 17.6611 56.4258 17.1973 55.1074 17.1973C54.375 17.1973 53.7451 17.6123 53.2178 18.4424C52.7002 19.2627 52.4414 20.332 52.4414 21.6504V22.9688ZM76.9336 30C76.3477 30 76.0547 29.707 76.0547 29.1211V15.498C76.0547 14.9121 76.3477 14.6191 76.9336 14.6191H79.2773C79.8633 14.6191 80.1562 14.9121 80.1562 15.498V29.1211C80.1562 29.707 79.8633 30 79.2773 30H76.9336ZM76.9336 12.3633C76.3477 12.3633 76.0547 12.0703 76.0547 11.4844V9.60938C76.0547 9.02344 76.3477 8.73047 76.9336 8.73047H79.2773C79.8633 8.73047 80.1562 9.02344 80.1562 9.60938V11.4844C80.1562 12.0703 79.8633 12.3633 79.2773 12.3633H76.9336ZM134.297 22.3096C134.297 19.8389 134.912 17.8906 136.143 16.4648C137.383 15.0391 139.131 14.3262 141.387 14.3262C144.004 14.3262 145.947 15 147.217 16.3477C148.486 17.6953 149.121 19.8633 149.121 22.8516C149.121 23.4375 148.848 23.7305 148.301 23.7305H138.633C138.789 25.3516 139.189 26.3721 139.834 26.792C140.479 27.2119 141.226 27.4219 142.075 27.4219C142.886 27.4219 143.506 27.3145 143.936 27.0996C144.365 26.8848 144.727 26.5918 145.02 26.2207C145.352 25.791 145.762 25.7227 146.25 26.0156L147.715 26.9092C148.291 27.2607 148.374 27.6807 147.964 28.1689C147.368 28.8818 146.67 29.4141 145.869 29.7656C145.068 30.1172 143.804 30.293 142.075 30.293C139.272 30.293 137.275 29.5801 136.084 28.1543C134.893 26.7285 134.297 24.7803 134.297 22.3096ZM138.647 20.8008H145.02C145.02 19.7461 144.756 18.8867 144.229 18.2227C143.701 17.5488 142.861 17.2119 141.709 17.2119C140.791 17.2119 140.063 17.5342 139.526 18.1787C138.989 18.8135 138.696 19.6875 138.647 20.8008ZM151.494 25.8984C151.494 23.9453 152.427 22.5293 154.292 21.6504C156.157 20.7715 158.286 20.3027 160.679 20.2441V19.6582C160.679 18.7598 160.454 18.125 160.005 17.7539C159.556 17.3828 158.931 17.1973 158.13 17.1973C157.563 17.1973 157.061 17.2803 156.621 17.4463C156.191 17.6025 155.815 17.7881 155.493 18.0029C155.181 18.208 154.897 18.418 154.644 18.6328C154.194 19.0234 153.823 19.043 153.53 18.6914L152.314 17.1973C152.012 16.8262 152.085 16.4453 152.534 16.0547C152.876 15.752 153.271 15.4883 153.721 15.2637C154.18 15.0391 154.785 14.8291 155.537 14.6338C156.289 14.4287 157.266 14.3262 158.467 14.3262C160.498 14.3262 162.056 14.7949 163.14 15.7324C164.233 16.6699 164.78 18.0518 164.78 19.8779V29.1211C164.78 29.707 164.487 30 163.901 30H161.499C160.972 30 160.708 29.707 160.708 29.1211V28.6816H160.679C160.103 29.2383 159.409 29.6484 158.599 29.9121C157.798 30.166 157.061 30.293 156.387 30.293C154.785 30.293 153.569 29.9023 152.739 29.1211C151.909 28.3301 151.494 27.2559 151.494 25.8984ZM155.83 25.8105C155.83 26.1523 155.898 26.4502 156.035 26.7041C156.172 26.9482 156.387 27.1289 156.68 27.2461C156.973 27.3633 157.3 27.4219 157.661 27.4219C158.159 27.4219 158.643 27.3535 159.111 27.2168C159.58 27.0801 160.103 26.7578 160.679 26.25V23.0713C159.038 23.2568 157.939 23.4961 157.383 23.7891C156.826 24.082 156.426 24.3848 156.182 24.6973C155.947 25.0098 155.83 25.3809 155.83 25.8105ZM169.658 30C169.072 30 168.779 29.707 168.779 29.1211V15.498C168.779 14.9121 169.072 14.6191 169.658 14.6191H171.973C172.559 14.6191 172.852 14.9121 172.852 15.498V16.6992H172.91C173.164 16.0742 173.589 15.5225 174.185 15.0439C174.78 14.5654 175.483 14.3262 176.294 14.3262C176.851 14.3262 177.31 14.3945 177.671 14.5312C178.013 14.6582 178.145 14.8926 178.066 15.2344L177.656 16.9775C177.568 17.3682 177.305 17.4854 176.865 17.3291C176.611 17.2412 176.367 17.1973 176.133 17.1973C175.195 17.1973 174.419 17.7588 173.804 18.8818C173.188 20.0049 172.881 21.6406 172.881 23.7891V29.1211C172.881 29.707 172.588 30 172.002 30H169.658ZM179.473 22.3096C179.473 19.8193 180.098 17.8662 181.348 16.4502C182.598 15.0342 184.517 14.3262 187.104 14.3262C188.618 14.3262 189.795 14.5264 190.635 14.9268C191.475 15.3271 192.148 15.9131 192.656 16.6846C192.959 17.1436 192.91 17.5049 192.51 17.7686L190.957 18.7939C190.518 19.0869 190.132 18.9746 189.8 18.457C189.634 18.2031 189.316 17.9297 188.848 17.6367C188.379 17.3438 187.798 17.1973 187.104 17.1973C186.001 17.1973 185.176 17.5879 184.629 18.3691C184.082 19.1406 183.809 20.4541 183.809 22.3096C183.809 24.165 184.082 25.4834 184.629 26.2646C185.176 27.0361 186.001 27.4219 187.104 27.4219C187.896 27.4219 188.535 27.2559 189.023 26.9238C189.512 26.5918 189.971 26.1621 190.4 25.6348C190.771 25.1855 191.162 25.1221 191.572 25.4443L192.935 26.5137C193.345 26.8359 193.369 27.2656 193.008 27.8027C192.627 28.3691 191.978 28.9258 191.06 29.4727C190.151 30.0195 188.833 30.293 187.104 30.293C184.517 30.293 182.598 29.585 181.348 28.1689C180.098 26.7529 179.473 24.7998 179.473 22.3096ZM197.08 30C196.494 30 196.201 29.707 196.201 29.1211V9.25781C196.201 8.67188 196.494 8.37891 197.08 8.37891H199.424C200.01 8.37891 200.303 8.67188 200.303 9.25781V15.1758C200.303 15.5664 200.283 15.957 200.244 16.3477H200.332C200.781 15.5762 201.353 15.0488 202.046 14.7656C202.739 14.4727 203.574 14.3262 204.551 14.3262C206.074 14.3262 207.334 14.8047 208.33 15.7617C209.326 16.7188 209.824 18.4668 209.824 21.0059V29.1211C209.824 29.707 209.531 30 208.945 30H206.602C206.016 30 205.723 29.707 205.723 29.1211V22.0605C205.723 19.9316 205.576 18.5889 205.283 18.0322C204.99 17.4756 204.36 17.1973 203.394 17.1973C202.368 17.1973 201.597 17.5977 201.079 18.3984C200.562 19.1895 200.303 20.8398 200.303 23.3496V29.1211C200.303 29.707 200.01 30 199.424 30H197.08Z" fill="white"/>
</mask>
<g mask="url(#mask1_889_275)">
<ellipse cx="199.754" cy="13.2679" rx="12.2461" ry="12.0536" fill="#A2B5F7" fill-opacity="0.77"/>
<ellipse cx="15.2461" cy="10.0536" rx="12.2461" ry="12.0536" fill="#A2B5F7" fill-opacity="0.77"/>
<ellipse cx="52.8008" cy="29.3392" rx="12.2461" ry="12.0536" fill="#1556F7" fill-opacity="0.78"/>
<ellipse cx="124.645" cy="30.9464" rx="12.2461" ry="12.0536" fill="#A2B5F7" fill-opacity="0.77"/>
<ellipse cx="162.199" cy="14.8751" rx="12.2461" ry="12.0536" fill="#1556F7" fill-opacity="0.78"/>
<ellipse cx="85.457" cy="10.0536" rx="12.2461" ry="12.0536" fill="#A2B5F7" fill-opacity="0.77"/>
</g>
</svg>
