<svg width="17" height="20" viewBox="0 0 17 20" fill="none" xmlns="http://www.w3.org/2000/svg">
<mask id="mask0_435_37" style="mask-type:alpha" maskUnits="userSpaceOnUse" x="0" y="0" width="17" height="20">
<path d="M6.89682 0C5.6324 0 4.59788 1.125 4.59788 2.5H2.29894C1.03452 2.5 0 3.625 0 5H16.0926C16.0926 3.625 15.058 2.5 13.7936 2.5H11.4947C11.4947 1.125 10.4602 0 9.19576 0H6.89682ZM2.29894 7.5V19.525C2.29894 19.8 2.48285 20 2.73574 20H13.3798C13.6327 20 13.8166 19.8 13.8166 19.525V7.5H11.5177V16.25C11.5177 16.95 11.0119 17.5 10.3682 17.5C9.72451 17.5 9.21874 16.95 9.21874 16.25V7.5H6.91981V16.25C6.91981 16.95 6.41404 17.5 5.77034 17.5C5.12663 17.5 4.62087 16.95 4.62087 16.25V7.5H2.32193H2.29894Z" fill="black"/>
</mask>
<g mask="url(#mask0_435_37)">
<rect x="-37.5498" y="-32.1852" width="89.4032" height="89.4032" fill="#C0C0C0"/>
</g>
</svg>
